{
	"asset":{
		"generator":"Khronos glTF Blender I/O v4.1.63",
		"version":"2.0"
	},
	"scene":0,
	"scenes":[
		{
			"name":"Scene",
			"nodes":[
				1
			]
		}
	],
	"nodes":[
		{
			"mesh":0,
			"name":"cherry04.001",
			"rotation":[
				-0.0700385794043541,
				0.7070655226707458,
				-0.007653865031898022,
				0.7036294937133789
			],
			"scale":[
				24.57126235961914,
				24.57126235961914,
				24.571264266967773
			],
			"translation":[
				-0.6167858242988586,
				-0.37774723768234253,
				0.3016376793384552
			]
		},
		{
			"children":[
				0
			],
			"name":"Cake",
			"translation":[
				0.6143689155578613,
				1.12149977684021,
				-0.30885982513427734
			]
		}
	],
	"materials":[
		{
			"doubleSided":true,
			"name":"mbranch",
			"pbrMetallicRoughness":{
				"baseColorFactor":[
					0.032649800181388855,
					0.06525412946939468,
					0.014266515150666237,
					1
				],
				"metallicFactor":0,
				"roughnessFactor":0.5
			}
		},
		{
			"doubleSided":true,
			"name":"mcherry",
			"pbrMetallicRoughness":{
				"baseColorFactor":[
					0.8000000715255737,
					0.06989635527133942,
					0.0264467541128397,
					1
				],
				"metallicFactor":0.059090908616781235,
				"roughnessFactor":0.1772727370262146
			}
		},
		{
			"doubleSided":true,
			"name":"mlimb",
			"pbrMetallicRoughness":{
				"baseColorFactor":[
					0.30445152521133423,
					0.8000000715255737,
					0.20612210035324097,
					1
				],
				"metallicFactor":0,
				"roughnessFactor":0.5
			}
		}
	],
	"meshes":[
		{
			"name":"Sphere.009",
			"primitives":[
				{
					"attributes":{
						"POSITION":0,
						"NORMAL":1,
						"TEXCOORD_0":2
					},
					"indices":3,
					"material":0
				},
				{
					"attributes":{
						"POSITION":4,
						"NORMAL":5,
						"TEXCOORD_0":6
					},
					"indices":7,
					"material":1
				},
				{
					"attributes":{
						"POSITION":8,
						"NORMAL":9,
						"TEXCOORD_0":10
					},
					"indices":11,
					"material":2
				}
			]
		}
	],
	"accessors":[
		{
			"bufferView":0,
			"componentType":5126,
			"count":4007,
			"max":[
				-0.0037212702445685863,
				0.016113048419356346,
				0.0014655301347374916
			],
			"min":[
				-0.005804249085485935,
				0.01277155801653862,
				0.0006388636538758874
			],
			"type":"VEC3"
		},
		{
			"bufferView":1,
			"componentType":5126,
			"count":4007,
			"type":"VEC3"
		},
		{
			"bufferView":2,
			"componentType":5126,
			"count":4007,
			"type":"VEC2"
		},
		{
			"bufferView":3,
			"componentType":5123,
			"count":22272,
			"type":"SCALAR"
		},
		{
			"bufferView":4,
			"componentType":5126,
			"count":13317,
			"max":[
				0.004829423502087593,
				0.0030253641307353973,
				0.004898157436400652
			],
			"min":[
				-0.004488054662942886,
				-0.004156668670475483,
				-0.004885334055870771
			],
			"type":"VEC3"
		},
		{
			"bufferView":5,
			"componentType":5126,
			"count":13317,
			"type":"VEC3"
		},
		{
			"bufferView":6,
			"componentType":5126,
			"count":13317,
			"type":"VEC2"
		},
		{
			"bufferView":7,
			"componentType":5123,
			"count":74496,
			"type":"SCALAR"
		},
		{
			"bufferView":8,
			"componentType":5126,
			"count":4769,
			"max":[
				0.0009609152330085635,
				0.013393116183578968,
				0.0013648474123328924
			],
			"min":[
				-0.004714507143944502,
				0.0010390124516561627,
				-0.0010124678956344724
			],
			"type":"VEC3"
		},
		{
			"bufferView":9,
			"componentType":5126,
			"count":4769,
			"type":"VEC3"
		},
		{
			"bufferView":10,
			"componentType":5126,
			"count":4769,
			"type":"VEC2"
		},
		{
			"bufferView":11,
			"componentType":5123,
			"count":25344,
			"type":"SCALAR"
		}
	],
	"bufferViews":[
		{
			"buffer":0,
			"byteLength":48084,
			"byteOffset":0,
			"target":34962
		},
		{
			"buffer":0,
			"byteLength":48084,
			"byteOffset":48084,
			"target":34962
		},
		{
			"buffer":0,
			"byteLength":32056,
			"byteOffset":96168,
			"target":34962
		},
		{
			"buffer":0,
			"byteLength":44544,
			"byteOffset":128224,
			"target":34963
		},
		{
			"buffer":0,
			"byteLength":159804,
			"byteOffset":172768,
			"target":34962
		},
		{
			"buffer":0,
			"byteLength":159804,
			"byteOffset":332572,
			"target":34962
		},
		{
			"buffer":0,
			"byteLength":106536,
			"byteOffset":492376,
			"target":34962
		},
		{
			"buffer":0,
			"byteLength":148992,
			"byteOffset":598912,
			"target":34963
		},
		{
			"buffer":0,
			"byteLength":57228,
			"byteOffset":747904,
			"target":34962
		},
		{
			"buffer":0,
			"byteLength":57228,
			"byteOffset":805132,
			"target":34962
		},
		{
			"buffer":0,
			"byteLength":38152,
			"byteOffset":862360,
			"target":34962
		},
		{
			"buffer":0,
			"byteLength":50688,
			"byteOffset":900512,
			"target":34963
		}
	],
	"buffers":[
		{
			"byteLength":951200,
			"uri":"data:application/octet-stream;base64,"
		}
	]
}
