{
	"asset":{
		"generator":"Khronos glTF Blender I/O v4.1.63",
		"version":"2.0"
	},
	"scene":0,
	"scenes":[
		{
			"name":"Scene",
			"nodes":[
				0,
				1,
				2,
				3,
				4,
				5,
				6,
				7,
				8,
				9,
				10,
				11,
				12,
				13,
				14,
				15
			]
		}
	],
	"nodes":[
		{
			"mesh":0,
			"name":"Cube.015",
			"rotation":[
				-0.28304535150527954,
				0.3684001564979553,
				-0.14097245037555695,
				0.8742387890815735
			],
			"scale":[
				0.04540877789258957,
				0.04408152773976326,
				0.10448057949542999
			],
			"translation":[
				-0.41749680042266846,
				0.4060591459274292,
				0.26714152097702026
			]
		},
		{
			"mesh":1,
			"name":"Cube.014",
			"rotation":[
				0.050418317317962646,
				-0.09620190411806107,
				0.09079337120056152,
				0.9899291396141052
			],
			"scale":[
				0.04540877789258957,
				0.04408152773976326,
				0.10448058694601059
			],
			"translation":[
				-0.2896572947502136,
				0.5454279780387878,
				0.1193985790014267
			]
		},
		{
			"mesh":2,
			"name":"Cube.013",
			"rotation":[
				-0.1385023593902588,
				0.2095794826745987,
				0.2843502461910248,
				0.9252234697341919
			],
			"scale":[
				0.045408766716718674,
				0.04408152773976326,
				0.10448057949542999
			],
			"translation":[
				0.13523545861244202,
				0.48765110969543457,
				-0.3595007658004761
			]
		},
		{
			"mesh":3,
			"name":"Cube.012",
			"rotation":[
				-0.07252474129199982,
				-0.27582797408103943,
				-0.00042487168684601784,
				0.9584669470787048
			],
			"scale":[
				0.04540877789258957,
				0.04408152773976326,
				0.10448060184717178
			],
			"translation":[
				-0.06081259995698929,
				0.603884220123291,
				-0.11636706441640854
			]
		},
		{
			"mesh":4,
			"name":"Cube.011",
			"rotation":[
				-0.011307016015052795,
				0.25000661611557007,
				-0.3942757546901703,
				0.884259819984436
			],
			"scale":[
				0.04540877789258957,
				0.04408153146505356,
				0.10448061674833298
			],
			"translation":[
				0.3822695016860962,
				0.4980512261390686,
				0.06608082354068756
			]
		},
		{
			"mesh":5,
			"name":"Cube.010",
			"rotation":[
				0.1952640265226364,
				0.2627732455730438,
				0.12957853078842163,
				0.9359657168388367
			],
			"scale":[
				0.04540877789258957,
				0.04408152773976326,
				0.10448060184717178
			],
			"translation":[
				-0.17583471536636353,
				0.45273852348327637,
				0.3960261046886444
			]
		},
		{
			"mesh":6,
			"name":"Cube.009",
			"rotation":[
				0.05493871122598648,
				0.33916956186294556,
				0.059282153844833374,
				0.9372467994689941
			],
			"scale":[
				0.04540877789258957,
				0.04408152773976326,
				0.10448060184717178
			],
			"translation":[
				0.005588056053966284,
				0.6351173520088196,
				0.11386135965585709
			]
		},
		{
			"mesh":7,
			"name":"Cube.008",
			"rotation":[
				-0.04898146912455559,
				0.0763157531619072,
				0.07611964643001556,
				0.9929665327072144
			],
			"scale":[
				0.04540877789258957,
				0.04408152773976326,
				0.10448066890239716
			],
			"translation":[
				0.15935248136520386,
				0.6202634572982788,
				-0.11195028573274612
			]
		},
		{
			"mesh":8,
			"name":"Cube.007",
			"rotation":[
				-0.4355984926223755,
				-0.050181493163108826,
				-0.157754585146904,
				0.8847877383232117
			],
			"scale":[
				0.04540877416729927,
				0.044081538915634155,
				0.10448057949542999
			],
			"translation":[
				0.32079267501831055,
				0.38116106390953064,
				-0.3921106457710266
			]
		},
		{
			"mesh":9,
			"name":"Cube.006",
			"rotation":[
				-0.07286331802606583,
				0.3854486644268036,
				-0.7165104150772095,
				0.5768302083015442
			],
			"scale":[
				0.04540880396962166,
				0.044081538915634155,
				0.10448060184717178
			],
			"translation":[
				0.25160902738571167,
				0.5449332594871521,
				0.3091391623020172
			]
		},
		{
			"mesh":10,
			"name":"Cube.005",
			"rotation":[
				-0.5175008773803711,
				0.28541848063468933,
				0.2537061274051666,
				0.7657429575920105
			],
			"scale":[
				0.04540877044200897,
				0.044081538915634155,
				0.10448060184717178
			],
			"translation":[
				-0.19506707787513733,
				0.3783124089241028,
				-0.4353312849998474
			]
		},
		{
			"mesh":11,
			"name":"Cube.004",
			"rotation":[
				0.41383931040763855,
				-0.005565583240240812,
				-0.31265291571617126,
				0.8549585938453674
			],
			"scale":[
				0.04540877789258957,
				0.04408152773976326,
				0.10448060184717178
			],
			"translation":[
				0.14270368218421936,
				0.37405216693878174,
				0.48033270239830017
			]
		},
		{
			"mesh":12,
			"name":"Cube.003",
			"rotation":[
				0.12536241114139557,
				0.08001960813999176,
				-0.3245771825313568,
				0.9340935945510864
			],
			"scale":[
				0.04540877789258957,
				0.04408153519034386,
				0.10448057949542999
			],
			"translation":[
				-0.498890221118927,
				0.4337282180786133,
				-0.04333658143877983
			]
		},
		{
			"mesh":13,
			"name":"Cube.002",
			"rotation":[
				-0.1846102774143219,
				0.12351293116807938,
				-0.18027761578559875,
				0.9582085013389587
			],
			"scale":[
				0.04540877416729927,
				0.044081542640924454,
				0.10448057949542999
			],
			"translation":[
				0.3801381289958954,
				0.44426557421684265,
				-0.15249845385551453
			]
		},
		{
			"mesh":14,
			"name":"Cube.001",
			"rotation":[
				0.2559417486190796,
				-0.05468033626675606,
				-0.051497992128133774,
				0.9637696146965027
			],
			"scale":[
				0.045408789068460464,
				0.044081538915634155,
				0.10448057949542999
			],
			"translation":[
				0.01969921588897705,
				0.5240622162818909,
				0.3384152054786682
			]
		},
		{
			"mesh":15,
			"name":"Cube",
			"rotation":[
				-0.11292479187250137,
				-0.026397408917546272,
				0.24705617129802704,
				0.9620366096496582
			],
			"scale":[
				0.04540877416729927,
				0.04408153146505356,
				0.10448058694601059
			],
			"translation":[
				-0.3062012493610382,
				0.5408753156661987,
				-0.1720367968082428
			]
		}
	],
	"materials":[
		{
			"doubleSided":true,
			"name":"Material.015",
			"pbrMetallicRoughness":{
				"baseColorFactor":[
					0.7990984320640564,
					0.4232681393623352,
					0.1651323437690735,
					1
				],
				"metallicFactor":0,
				"roughnessFactor":0.5
			}
		},
		{
			"doubleSided":true,
			"name":"Material.014",
			"pbrMetallicRoughness":{
				"baseColorFactor":[
					0.7990984320640564,
					0.4232681393623352,
					0.1651323437690735,
					1
				],
				"metallicFactor":0,
				"roughnessFactor":0.5
			}
		},
		{
			"doubleSided":true,
			"name":"Material.013",
			"pbrMetallicRoughness":{
				"baseColorFactor":[
					0.7990984320640564,
					0.4232681393623352,
					0.1651323437690735,
					1
				],
				"metallicFactor":0,
				"roughnessFactor":0.5
			}
		},
		{
			"doubleSided":true,
			"name":"Material.012",
			"pbrMetallicRoughness":{
				"baseColorFactor":[
					0.7990984320640564,
					0.4232681393623352,
					0.1651323437690735,
					1
				],
				"metallicFactor":0,
				"roughnessFactor":0.5
			}
		},
		{
			"doubleSided":true,
			"name":"Material.010",
			"pbrMetallicRoughness":{
				"baseColorFactor":[
					0.7990984320640564,
					0.4232681393623352,
					0.1651323437690735,
					1
				],
				"metallicFactor":0,
				"roughnessFactor":0.5
			}
		},
		{
			"doubleSided":true,
			"name":"Material.009",
			"pbrMetallicRoughness":{
				"baseColorFactor":[
					0.7990984320640564,
					0.4232681393623352,
					0.1651323437690735,
					1
				],
				"metallicFactor":0,
				"roughnessFactor":0.5
			}
		},
		{
			"doubleSided":true,
			"name":"Material.008",
			"pbrMetallicRoughness":{
				"baseColorFactor":[
					0.7990984320640564,
					0.4232681393623352,
					0.1651323437690735,
					1
				],
				"metallicFactor":0,
				"roughnessFactor":0.5
			}
		},
		{
			"doubleSided":true,
			"name":"Material.007",
			"pbrMetallicRoughness":{
				"baseColorFactor":[
					0.7990984320640564,
					0.4232681393623352,
					0.1651323437690735,
					1
				],
				"metallicFactor":0,
				"roughnessFactor":0.5
			}
		},
		{
			"doubleSided":true,
			"name":"Material.006",
			"pbrMetallicRoughness":{
				"baseColorFactor":[
					0.7990984320640564,
					0.4232681393623352,
					0.1651323437690735,
					1
				],
				"metallicFactor":0,
				"roughnessFactor":0.5
			}
		},
		{
			"doubleSided":true,
			"name":"Material.005",
			"pbrMetallicRoughness":{
				"baseColorFactor":[
					0.7990984320640564,
					0.4232681393623352,
					0.1651323437690735,
					1
				],
				"metallicFactor":0,
				"roughnessFactor":0.5
			}
		},
		{
			"doubleSided":true,
			"name":"Material.004",
			"pbrMetallicRoughness":{
				"baseColorFactor":[
					0.7990984320640564,
					0.4232681393623352,
					0.1651323437690735,
					1
				],
				"metallicFactor":0,
				"roughnessFactor":0.5
			}
		},
		{
			"doubleSided":true,
			"name":"Material.003",
			"pbrMetallicRoughness":{
				"baseColorFactor":[
					0.7990984320640564,
					0.4232681393623352,
					0.1651323437690735,
					1
				],
				"metallicFactor":0,
				"roughnessFactor":0.5
			}
		},
		{
			"doubleSided":true,
			"name":"Material.002",
			"pbrMetallicRoughness":{
				"baseColorFactor":[
					0.7990984320640564,
					0.4232681393623352,
					0.1651323437690735,
					1
				],
				"metallicFactor":0,
				"roughnessFactor":0.5
			}
		},
		{
			"doubleSided":true,
			"name":"Material.001",
			"pbrMetallicRoughness":{
				"baseColorFactor":[
					0.7990984320640564,
					0.4232681393623352,
					0.1651323437690735,
					1
				],
				"metallicFactor":0,
				"roughnessFactor":0.5
			}
		},
		{
			"doubleSided":true,
			"name":"Material.016",
			"pbrMetallicRoughness":{
				"baseColorFactor":[
					0.7990984320640564,
					0.4232681393623352,
					0.1651323437690735,
					1
				],
				"metallicFactor":0,
				"roughnessFactor":0.5
			}
		}
	],
	"meshes":[
		{
			"name":"Cube.015",
			"primitives":[
				{
					"attributes":{
						"POSITION":0,
						"NORMAL":1,
						"TEXCOORD_0":2
					},
					"indices":3,
					"material":0
				}
			]
		},
		{
			"name":"Cube.014",
			"primitives":[
				{
					"attributes":{
						"POSITION":4,
						"NORMAL":5,
						"TEXCOORD_0":6
					},
					"indices":3,
					"material":1
				}
			]
		},
		{
			"name":"Cube.013",
			"primitives":[
				{
					"attributes":{
						"POSITION":7,
						"NORMAL":8,
						"TEXCOORD_0":9
					},
					"indices":3,
					"material":2
				}
			]
		},
		{
			"name":"Cube.012",
			"primitives":[
				{
					"attributes":{
						"POSITION":10,
						"NORMAL":11,
						"TEXCOORD_0":12
					},
					"indices":3,
					"material":3
				}
			]
		},
		{
			"name":"Cube.011",
			"primitives":[
				{
					"attributes":{
						"POSITION":13,
						"NORMAL":14,
						"TEXCOORD_0":15
					},
					"indices":3,
					"material":0
				}
			]
		},
		{
			"name":"Cube.010",
			"primitives":[
				{
					"attributes":{
						"POSITION":16,
						"NORMAL":17,
						"TEXCOORD_0":18
					},
					"indices":3,
					"material":4
				}
			]
		},
		{
			"name":"Cube.009",
			"primitives":[
				{
					"attributes":{
						"POSITION":19,
						"NORMAL":20,
						"TEXCOORD_0":21
					},
					"indices":3,
					"material":5
				}
			]
		},
		{
			"name":"Cube.008",
			"primitives":[
				{
					"attributes":{
						"POSITION":22,
						"NORMAL":23,
						"TEXCOORD_0":24
					},
					"indices":3,
					"material":6
				}
			]
		},
		{
			"name":"Cube.007",
			"primitives":[
				{
					"attributes":{
						"POSITION":25,
						"NORMAL":26,
						"TEXCOORD_0":27
					},
					"indices":3,
					"material":7
				}
			]
		},
		{
			"name":"Cube.006",
			"primitives":[
				{
					"attributes":{
						"POSITION":28,
						"NORMAL":29,
						"TEXCOORD_0":30
					},
					"indices":3,
					"material":8
				}
			]
		},
		{
			"name":"Cube.005",
			"primitives":[
				{
					"attributes":{
						"POSITION":31,
						"NORMAL":32,
						"TEXCOORD_0":33
					},
					"indices":3,
					"material":9
				}
			]
		},
		{
			"name":"Cube.004",
			"primitives":[
				{
					"attributes":{
						"POSITION":34,
						"NORMAL":35,
						"TEXCOORD_0":36
					},
					"indices":3,
					"material":10
				}
			]
		},
		{
			"name":"Cube.003",
			"primitives":[
				{
					"attributes":{
						"POSITION":37,
						"NORMAL":38,
						"TEXCOORD_0":39
					},
					"indices":3,
					"material":11
				}
			]
		},
		{
			"name":"Cube.002",
			"primitives":[
				{
					"attributes":{
						"POSITION":40,
						"NORMAL":41,
						"TEXCOORD_0":42
					},
					"indices":3,
					"material":12
				}
			]
		},
		{
			"name":"Cube.001",
			"primitives":[
				{
					"attributes":{
						"POSITION":43,
						"NORMAL":44,
						"TEXCOORD_0":45
					},
					"indices":3,
					"material":13
				}
			]
		},
		{
			"name":"Cube",
			"primitives":[
				{
					"attributes":{
						"POSITION":46,
						"NORMAL":47,
						"TEXCOORD_0":48
					},
					"indices":3,
					"material":14
				}
			]
		}
	],
	"accessors":[
		{
			"bufferView":0,
			"componentType":5126,
			"count":713,
			"max":[
				0.9714609384536743,
				2.0244393348693848,
				0.9586836099624634
			],
			"min":[
				-0.9318315982818604,
				-0.22609969973564148,
				-0.9436655044555664
			],
			"type":"VEC3"
		},
		{
			"bufferView":1,
			"componentType":5126,
			"count":713,
			"type":"VEC3"
		},
		{
			"bufferView":2,
			"componentType":5126,
			"count":713,
			"type":"VEC2"
		},
		{
			"bufferView":3,
			"componentType":5123,
			"count":3840,
			"type":"SCALAR"
		},
		{
			"bufferView":4,
			"componentType":5126,
			"count":713,
			"max":[
				0.9714609384536743,
				2.0244393348693848,
				0.9586836099624634
			],
			"min":[
				-0.9318315982818604,
				-0.22609969973564148,
				-0.9436655044555664
			],
			"type":"VEC3"
		},
		{
			"bufferView":5,
			"componentType":5126,
			"count":713,
			"type":"VEC3"
		},
		{
			"bufferView":6,
			"componentType":5126,
			"count":713,
			"type":"VEC2"
		},
		{
			"bufferView":7,
			"componentType":5126,
			"count":713,
			"max":[
				0.9714609384536743,
				2.0244393348693848,
				0.9586836099624634
			],
			"min":[
				-0.9318315982818604,
				-0.22609969973564148,
				-0.9436655044555664
			],
			"type":"VEC3"
		},
		{
			"bufferView":8,
			"componentType":5126,
			"count":713,
			"type":"VEC3"
		},
		{
			"bufferView":9,
			"componentType":5126,
			"count":713,
			"type":"VEC2"
		},
		{
			"bufferView":10,
			"componentType":5126,
			"count":713,
			"max":[
				0.9714609384536743,
				2.0244393348693848,
				0.9586836099624634
			],
			"min":[
				-0.9318315982818604,
				-0.22609969973564148,
				-0.9436655044555664
			],
			"type":"VEC3"
		},
		{
			"bufferView":11,
			"componentType":5126,
			"count":713,
			"type":"VEC3"
		},
		{
			"bufferView":12,
			"componentType":5126,
			"count":713,
			"type":"VEC2"
		},
		{
			"bufferView":13,
			"componentType":5126,
			"count":713,
			"max":[
				0.9714609384536743,
				2.0244393348693848,
				0.9586836099624634
			],
			"min":[
				-0.9318315982818604,
				-0.22609969973564148,
				-0.9436655044555664
			],
			"type":"VEC3"
		},
		{
			"bufferView":14,
			"componentType":5126,
			"count":713,
			"type":"VEC3"
		},
		{
			"bufferView":15,
			"componentType":5126,
			"count":713,
			"type":"VEC2"
		},
		{
			"bufferView":16,
			"componentType":5126,
			"count":713,
			"max":[
				0.9714609384536743,
				2.0244393348693848,
				0.9586836099624634
			],
			"min":[
				-0.9318315982818604,
				-0.22609969973564148,
				-0.9436655044555664
			],
			"type":"VEC3"
		},
		{
			"bufferView":17,
			"componentType":5126,
			"count":713,
			"type":"VEC3"
		},
		{
			"bufferView":18,
			"componentType":5126,
			"count":713,
			"type":"VEC2"
		},
		{
			"bufferView":19,
			"componentType":5126,
			"count":713,
			"max":[
				0.9714609384536743,
				2.0244393348693848,
				0.9586836099624634
			],
			"min":[
				-0.9318315982818604,
				-0.22609969973564148,
				-0.9436655044555664
			],
			"type":"VEC3"
		},
		{
			"bufferView":20,
			"componentType":5126,
			"count":713,
			"type":"VEC3"
		},
		{
			"bufferView":21,
			"componentType":5126,
			"count":713,
			"type":"VEC2"
		},
		{
			"bufferView":22,
			"componentType":5126,
			"count":713,
			"max":[
				0.9714609384536743,
				2.0244393348693848,
				0.9586836099624634
			],
			"min":[
				-0.9318315982818604,
				-0.22609969973564148,
				-0.9436655044555664
			],
			"type":"VEC3"
		},
		{
			"bufferView":23,
			"componentType":5126,
			"count":713,
			"type":"VEC3"
		},
		{
			"bufferView":24,
			"componentType":5126,
			"count":713,
			"type":"VEC2"
		},
		{
			"bufferView":25,
			"componentType":5126,
			"count":713,
			"max":[
				0.9714609384536743,
				2.0244393348693848,
				0.9586836099624634
			],
			"min":[
				-0.9318315982818604,
				-0.22609969973564148,
				-0.9436655044555664
			],
			"type":"VEC3"
		},
		{
			"bufferView":26,
			"componentType":5126,
			"count":713,
			"type":"VEC3"
		},
		{
			"bufferView":27,
			"componentType":5126,
			"count":713,
			"type":"VEC2"
		},
		{
			"bufferView":28,
			"componentType":5126,
			"count":713,
			"max":[
				0.9714609384536743,
				2.0244393348693848,
				0.9586836099624634
			],
			"min":[
				-0.9318315982818604,
				-0.22609969973564148,
				-0.9436655044555664
			],
			"type":"VEC3"
		},
		{
			"bufferView":29,
			"componentType":5126,
			"count":713,
			"type":"VEC3"
		},
		{
			"bufferView":30,
			"componentType":5126,
			"count":713,
			"type":"VEC2"
		},
		{
			"bufferView":31,
			"componentType":5126,
			"count":713,
			"max":[
				0.9714609384536743,
				2.0244393348693848,
				0.9586836099624634
			],
			"min":[
				-0.9318315982818604,
				-0.22609969973564148,
				-0.9436655044555664
			],
			"type":"VEC3"
		},
		{
			"bufferView":32,
			"componentType":5126,
			"count":713,
			"type":"VEC3"
		},
		{
			"bufferView":33,
			"componentType":5126,
			"count":713,
			"type":"VEC2"
		},
		{
			"bufferView":34,
			"componentType":5126,
			"count":713,
			"max":[
				0.9714609384536743,
				2.0244393348693848,
				0.9586836099624634
			],
			"min":[
				-0.9318315982818604,
				-0.22609969973564148,
				-0.9436655044555664
			],
			"type":"VEC3"
		},
		{
			"bufferView":35,
			"componentType":5126,
			"count":713,
			"type":"VEC3"
		},
		{
			"bufferView":36,
			"componentType":5126,
			"count":713,
			"type":"VEC2"
		},
		{
			"bufferView":37,
			"componentType":5126,
			"count":713,
			"max":[
				0.9714609384536743,
				2.0244393348693848,
				0.9586836099624634
			],
			"min":[
				-0.9318315982818604,
				-0.22609969973564148,
				-0.9436655044555664
			],
			"type":"VEC3"
		},
		{
			"bufferView":38,
			"componentType":5126,
			"count":713,
			"type":"VEC3"
		},
		{
			"bufferView":39,
			"componentType":5126,
			"count":713,
			"type":"VEC2"
		},
		{
			"bufferView":40,
			"componentType":5126,
			"count":713,
			"max":[
				0.9714609384536743,
				2.0244393348693848,
				0.9586836099624634
			],
			"min":[
				-0.9318315982818604,
				-0.22609969973564148,
				-0.9436655044555664
			],
			"type":"VEC3"
		},
		{
			"bufferView":41,
			"componentType":5126,
			"count":713,
			"type":"VEC3"
		},
		{
			"bufferView":42,
			"componentType":5126,
			"count":713,
			"type":"VEC2"
		},
		{
			"bufferView":43,
			"componentType":5126,
			"count":713,
			"max":[
				0.9714609384536743,
				2.0244393348693848,
				0.9586836099624634
			],
			"min":[
				-0.9318315982818604,
				-0.22609969973564148,
				-0.9436655044555664
			],
			"type":"VEC3"
		},
		{
			"bufferView":44,
			"componentType":5126,
			"count":713,
			"type":"VEC3"
		},
		{
			"bufferView":45,
			"componentType":5126,
			"count":713,
			"type":"VEC2"
		},
		{
			"bufferView":46,
			"componentType":5126,
			"count":713,
			"max":[
				0.9714609384536743,
				2.0244393348693848,
				0.9586836099624634
			],
			"min":[
				-0.9318315982818604,
				-0.22609969973564148,
				-0.9436655044555664
			],
			"type":"VEC3"
		},
		{
			"bufferView":47,
			"componentType":5126,
			"count":713,
			"type":"VEC3"
		},
		{
			"bufferView":48,
			"componentType":5126,
			"count":713,
			"type":"VEC2"
		}
	],
	"bufferViews":[
		{
			"buffer":0,
			"byteLength":8556,
			"byteOffset":0,
			"target":34962
		},
		{
			"buffer":0,
			"byteLength":8556,
			"byteOffset":8556,
			"target":34962
		},
		{
			"buffer":0,
			"byteLength":5704,
			"byteOffset":17112,
			"target":34962
		},
		{
			"buffer":0,
			"byteLength":7680,
			"byteOffset":22816,
			"target":34963
		},
		{
			"buffer":0,
			"byteLength":8556,
			"byteOffset":30496,
			"target":34962
		},
		{
			"buffer":0,
			"byteLength":8556,
			"byteOffset":39052,
			"target":34962
		},
		{
			"buffer":0,
			"byteLength":5704,
			"byteOffset":47608,
			"target":34962
		},
		{
			"buffer":0,
			"byteLength":8556,
			"byteOffset":53312,
			"target":34962
		},
		{
			"buffer":0,
			"byteLength":8556,
			"byteOffset":61868,
			"target":34962
		},
		{
			"buffer":0,
			"byteLength":5704,
			"byteOffset":70424,
			"target":34962
		},
		{
			"buffer":0,
			"byteLength":8556,
			"byteOffset":76128,
			"target":34962
		},
		{
			"buffer":0,
			"byteLength":8556,
			"byteOffset":84684,
			"target":34962
		},
		{
			"buffer":0,
			"byteLength":5704,
			"byteOffset":93240,
			"target":34962
		},
		{
			"buffer":0,
			"byteLength":8556,
			"byteOffset":98944,
			"target":34962
		},
		{
			"buffer":0,
			"byteLength":8556,
			"byteOffset":107500,
			"target":34962
		},
		{
			"buffer":0,
			"byteLength":5704,
			"byteOffset":116056,
			"target":34962
		},
		{
			"buffer":0,
			"byteLength":8556,
			"byteOffset":121760,
			"target":34962
		},
		{
			"buffer":0,
			"byteLength":8556,
			"byteOffset":130316,
			"target":34962
		},
		{
			"buffer":0,
			"byteLength":5704,
			"byteOffset":138872,
			"target":34962
		},
		{
			"buffer":0,
			"byteLength":8556,
			"byteOffset":144576,
			"target":34962
		},
		{
			"buffer":0,
			"byteLength":8556,
			"byteOffset":153132,
			"target":34962
		},
		{
			"buffer":0,
			"byteLength":5704,
			"byteOffset":161688,
			"target":34962
		},
		{
			"buffer":0,
			"byteLength":8556,
			"byteOffset":167392,
			"target":34962
		},
		{
			"buffer":0,
			"byteLength":8556,
			"byteOffset":175948,
			"target":34962
		},
		{
			"buffer":0,
			"byteLength":5704,
			"byteOffset":184504,
			"target":34962
		},
		{
			"buffer":0,
			"byteLength":8556,
			"byteOffset":190208,
			"target":34962
		},
		{
			"buffer":0,
			"byteLength":8556,
			"byteOffset":198764,
			"target":34962
		},
		{
			"buffer":0,
			"byteLength":5704,
			"byteOffset":207320,
			"target":34962
		},
		{
			"buffer":0,
			"byteLength":8556,
			"byteOffset":213024,
			"target":34962
		},
		{
			"buffer":0,
			"byteLength":8556,
			"byteOffset":221580,
			"target":34962
		},
		{
			"buffer":0,
			"byteLength":5704,
			"byteOffset":230136,
			"target":34962
		},
		{
			"buffer":0,
			"byteLength":8556,
			"byteOffset":235840,
			"target":34962
		},
		{
			"buffer":0,
			"byteLength":8556,
			"byteOffset":244396,
			"target":34962
		},
		{
			"buffer":0,
			"byteLength":5704,
			"byteOffset":252952,
			"target":34962
		},
		{
			"buffer":0,
			"byteLength":8556,
			"byteOffset":258656,
			"target":34962
		},
		{
			"buffer":0,
			"byteLength":8556,
			"byteOffset":267212,
			"target":34962
		},
		{
			"buffer":0,
			"byteLength":5704,
			"byteOffset":275768,
			"target":34962
		},
		{
			"buffer":0,
			"byteLength":8556,
			"byteOffset":281472,
			"target":34962
		},
		{
			"buffer":0,
			"byteLength":8556,
			"byteOffset":290028,
			"target":34962
		},
		{
			"buffer":0,
			"byteLength":5704,
			"byteOffset":298584,
			"target":34962
		},
		{
			"buffer":0,
			"byteLength":8556,
			"byteOffset":304288,
			"target":34962
		},
		{
			"buffer":0,
			"byteLength":8556,
			"byteOffset":312844,
			"target":34962
		},
		{
			"buffer":0,
			"byteLength":5704,
			"byteOffset":321400,
			"target":34962
		},
		{
			"buffer":0,
			"byteLength":8556,
			"byteOffset":327104,
			"target":34962
		},
		{
			"buffer":0,
			"byteLength":8556,
			"byteOffset":335660,
			"target":34962
		},
		{
			"buffer":0,
			"byteLength":5704,
			"byteOffset":344216,
			"target":34962
		},
		{
			"buffer":0,
			"byteLength":8556,
			"byteOffset":349920,
			"target":34962
		},
		{
			"buffer":0,
			"byteLength":8556,
			"byteOffset":358476,
			"target":34962
		},
		{
			"buffer":0,
			"byteLength":5704,
			"byteOffset":367032,
			"target":34962
		}
	],
	"buffers":[
		{
			"byteLength":372736,
			"uri":"data:application/octet-stream;base64,"
		}
	]
}
