{
	"asset":{
		"generator":"Khronos glTF Blender I/O v4.1.63",
		"version":"2.0"
	},
	"scene":0,
	"scenes":[
		{
			"name":"Scene",
			"nodes":[
				0
			]
		}
	],
	"nodes":[
		{
			"mesh":0,
			"name":"Sphere",
			"scale":[
				0.580689549446106,
				0.580689549446106,
				0.580689549446106
			],
			"translation":[
				-0.0009505264461040497,
				0.08219192177057266,
				-0.010366490110754967
			]
		}
	],
	"materials":[
		{
			"doubleSided":true,
			"name":"Material.001",
			"pbrMetallicRoughness":{
				"baseColorFactor":[
					0.0710073933005333,
					0.017675578594207764,
					0,
					1
				],
				"metallicFactor":0,
				"roughnessFactor":0.5
			}
		}
	],
	"meshes":[
		{
			"name":"Sphere",
			"primitives":[
				{
					"attributes":{
						"POSITION":0,
						"NORMAL":1,
						"TEXCOORD_0":2
					},
					"indices":3,
					"material":0
				}
			]
		}
	],
	"accessors":[
		{
			"bufferView":0,
			"componentType":5126,
			"count":2446,
			"max":[
				1.028253436088562,
				1.1181572675704956,
				1.0376920700073242
			],
			"min":[
				-1.0539296865463257,
				-0.10145069658756256,
				-1.0300275087356567
			],
			"type":"VEC3"
		},
		{
			"bufferView":1,
			"componentType":5126,
			"count":2446,
			"type":"VEC3"
		},
		{
			"bufferView":2,
			"componentType":5126,
			"count":2446,
			"type":"VEC2"
		},
		{
			"bufferView":3,
			"componentType":5123,
			"count":14268,
			"type":"SCALAR"
		}
	],
	"bufferViews":[
		{
			"buffer":0,
			"byteLength":29352,
			"byteOffset":0,
			"target":34962
		},
		{
			"buffer":0,
			"byteLength":29352,
			"byteOffset":29352,
			"target":34962
		},
		{
			"buffer":0,
			"byteLength":19568,
			"byteOffset":58704,
			"target":34962
		},
		{
			"buffer":0,
			"byteLength":28536,
			"byteOffset":78272,
			"target":34963
		}
	],
	"buffers":[
		{
			"byteLength":106808,
			"uri":"data:application/octet-stream;base64,"
		}
	]
}
